<?xml version="1.0" encoding="UTF-8"?>
<svg id="Camada_2" data-name="Camada 2" xmlns="http://www.w3.org/2000/svg" viewBox="0 0 210.86 100.94">
  <defs>
    <style>
      .cls-1 {
        fill: #00ffc6;
      }

      .cls-2 {
        fill: #06f;
      }

      .cls-3 {
        fill: #fff;
      }
    </style>
  </defs>
  <g id="Curso_Infos" data-name="Curso Infos">
    <g id="Infos_Course_Page" data-name="Infos Course Page">
      <rect class="cls-2" y="47.25" width="210.86" height="53.69"/>
      <g>
        <path class="cls-1" d="m23.57,33.03v-6.6h-9.55v-4.11L24.96,4.29h4.24v17.12h3.28v5.07h-3.28v6.55h-5.63Zm-3.83-11.49h3.97v-7.1l-3.97,7.1Z"/>
        <path class="cls-1" d="m55.17,33.03V4.29h5.3l4.06,11.86,4.06-11.9h5.4v28.79h-5.03V14.02l-3.09,9.55h-2.81l-2.91-9.5v18.96h-4.98Z"/>
        <path class="cls-1" d="m85.16,33.4c-1.78,0-3.39-.42-4.82-1.24-1.43-.83-2.57-2.06-3.41-3.69s-1.27-3.62-1.27-5.96.42-4.2,1.27-5.84,1.98-2.92,3.41-3.82c1.43-.9,3.04-1.36,4.82-1.36s3.4.45,4.84,1.36c1.44.9,2.6,2.18,3.46,3.82s1.29,3.59,1.29,5.84-.43,4.28-1.29,5.91c-.86,1.63-2.01,2.87-3.46,3.71-1.45.84-3.06,1.27-4.84,1.27Zm-.74-23.76l-2.95-1.66,3.46-7.98,4.38,2.81-4.89,6.83Zm.74,18.82c.77,0,1.42-.24,1.96-.71s.97-1.16,1.29-2.05c.32-.89.48-1.96.48-3.19,0-1.32-.16-2.43-.48-3.32-.32-.89-.75-1.57-1.29-2.03-.54-.46-1.19-.69-1.96-.69-.68,0-1.29.23-1.84.69-.55.46-.98,1.14-1.29,2.03s-.46,2-.46,3.32c0,1.24.15,2.3.44,3.19.29.89.71,1.58,1.27,2.05s1.18.71,1.89.71Z"/>
        <path class="cls-1" d="m101.46,32.76c-.97-.43-1.82-1.09-2.54-1.97-.72-.89-1.29-2.03-1.71-3.42s-.62-3.03-.62-4.92.18-3.44.55-4.81.9-2.51,1.59-3.42c.69-.9,1.53-1.58,2.51-2.04.98-.46,2.08-.69,3.28-.69.55,0,1.09.05,1.62.16.52.11,1.01.31,1.45.6.45.29.81.73,1.08,1.31V2.35h6.41v.46c-.15.18-.26.38-.32.59s-.08.58-.05,1.09l-.09,25.85c0,.46.03.9.09,1.34s.18.89.37,1.34h-5.81c-.12-.3-.22-.54-.28-.71-.06-.17-.1-.35-.12-.53-.02-.19-.02-.45-.02-.79-.34.55-.73,1.01-1.18,1.36-.45.35-.94.62-1.48.78-.54.17-1.08.25-1.64.25-1.11,0-2.15-.21-3.11-.64Zm5.51-4.62c.37-.21.68-.56.95-1.03s.46-1.1.6-1.87c.14-.78.21-1.71.21-2.8,0-1.52-.11-2.74-.32-3.66-.21-.92-.55-1.58-.99-1.98-.45-.4-1.01-.6-1.68-.6-.49,0-.95.14-1.36.41s-.76.67-1.04,1.21c-.28.53-.49,1.18-.65,1.96-.15.78-.23,1.68-.23,2.71,0,1.32.17,2.43.51,3.34.34.9.76,1.57,1.27,2,.51.43,1.01.65,1.5.65.46,0,.88-.11,1.25-.32Z"/>
        <path class="cls-1" d="m124.83,33.4c-.8,0-1.55-.1-2.24-.31-.69-.21-1.32-.53-1.89-.96-.57-.43-1.05-.98-1.45-1.67-.4-.68-.71-1.52-.92-2.51-.21-.99-.32-2.14-.32-3.44v-12.57h6v12.6c0,.7.05,1.3.14,1.78.09.48.23.89.42,1.21.18.32.41.55.67.68.26.13.53.2.81.2.52,0,.97-.09,1.34-.29s.68-.48.95-.86c.26-.38.45-.84.58-1.38.12-.54.18-1.18.18-1.91v-12.03h6v17.73c0,.69.02,1.29.07,1.81s.16,1.04.35,1.54h-5.35c-.15-.27-.26-.53-.32-.8-.06-.26-.1-.55-.12-.85-.02-.3-.02-.6-.02-.9-.25.46-.55.88-.92,1.25s-.76.68-1.18.92c-.42.25-.86.43-1.34.55-.48.12-.95.18-1.41.18Z"/>
        <path class="cls-1" d="m139.18,33.03v-4.89h5.35V7.24h-5.07V2.35h11.07v25.79h5.26v4.89h-16.61Z"/>
        <path class="cls-1" d="m168.19,33.4c-1.78,0-3.39-.42-4.82-1.24-1.43-.83-2.57-2.06-3.41-3.69s-1.27-3.62-1.27-5.96.42-4.2,1.27-5.84,1.98-2.92,3.41-3.82c1.43-.9,3.04-1.36,4.82-1.36s3.4.45,4.84,1.36c1.44.9,2.6,2.18,3.46,3.82s1.29,3.59,1.29,5.84-.43,4.28-1.29,5.91c-.86,1.63-2.01,2.87-3.46,3.71-1.45.84-3.06,1.27-4.84,1.27Zm0-4.94c.77,0,1.42-.24,1.96-.71s.97-1.16,1.29-2.05c.32-.89.48-1.96.48-3.19,0-1.32-.16-2.43-.48-3.32-.32-.89-.75-1.57-1.29-2.03-.54-.46-1.19-.69-1.96-.69-.68,0-1.29.23-1.84.69-.55.46-.98,1.14-1.29,2.03s-.46,2-.46,3.32c0,1.24.15,2.3.44,3.19.29.89.71,1.58,1.27,2.05s1.18.71,1.89.71Z"/>
        <path class="cls-1" d="m185.86,33.08c-1.14-.21-2.18-.55-3.14-.99-.95-.45-1.8-1.04-2.54-1.78l2.26-4.71.18-.37.37.23c.12.22.24.44.35.67.11.23.36.52.76.85.74.52,1.53.92,2.38,1.2s1.82.42,2.93.42c.58,0,1.09-.07,1.52-.22.43-.15.76-.35.99-.6.23-.25.35-.53.35-.82s-.09-.55-.28-.78c-.18-.22-.44-.42-.76-.6-.32-.18-.75-.36-1.29-.55-.54-.19-1.18-.41-1.91-.64-1.32-.38-2.48-.86-3.48-1.42-1-.56-1.78-1.26-2.33-2.08-.55-.83-.83-1.83-.83-3.02s.34-2.22,1.02-3.19c.68-.98,1.61-1.75,2.81-2.33,1.2-.58,2.6-.86,4.2-.86.77,0,1.52.07,2.26.21.74.14,1.44.33,2.12.58.68.25,1.31.57,1.91.97s1.16.86,1.68,1.38l-2.72,4.06-.23.42-.42-.32c-.03-.25-.1-.47-.21-.67-.11-.2-.36-.47-.76-.81-.49-.34-1.04-.58-1.64-.72-.6-.14-1.21-.21-1.82-.21-.8,0-1.49.12-2.08.37-.58.25-.88.61-.88,1.08,0,.38.16.71.48.98.32.27.8.5,1.43.71.63.21,1.44.44,2.42.71,1.51.35,2.75.84,3.71,1.44.97.61,1.68,1.32,2.14,2.15.46.83.69,1.82.69,2.97,0,1.24-.32,2.37-.97,3.37-.65,1.01-1.58,1.8-2.79,2.37-1.22.58-2.65.87-4.31.87-1.26,0-2.46-.11-3.6-.32Z"/>
        <path class="cls-3" d="m18.27,87.1c-1.6-1.2-2.82-2.89-3.67-5.08-.85-2.19-1.27-4.78-1.27-7.79,0-2.4.24-4.44.71-6.13.48-1.68,1.1-3.1,1.87-4.24s1.64-2.03,2.61-2.67c.97-.64,1.93-1.08,2.88-1.34.95-.26,1.83-.39,2.63-.39,1.2,0,2.34.18,3.41.53,1.08.35,2.04.88,2.91,1.59.86.71,1.54,1.57,2.03,2.58l-3.09,3.83-.28.32-.37-.32c-.03-.25-.07-.5-.12-.76-.05-.26-.21-.59-.48-.99-.25-.31-.54-.58-.88-.83-.34-.25-.74-.45-1.2-.6-.46-.15-1.01-.23-1.66-.23-.52,0-1.03.1-1.52.29-.49.2-.95.53-1.36,1-.42.47-.78,1.06-1.11,1.79-.32.72-.57,1.59-.74,2.6-.17,1.01-.25,2.2-.25,3.55,0,1.78.12,3.3.35,4.57.23,1.27.55,2.31.97,3.12.42.81.92,1.41,1.5,1.79.58.38,1.21.57,1.89.57.28,0,.55-.02.81-.07.26-.04.52-.11.78-.18.26-.07.51-.18.76-.32.25-.13.49-.29.74-.47v-4.64h-3.78v-5.07h9.13v12.85c-1.26,1.1-2.61,1.86-4.04,2.29-1.43.43-2.9.64-4.41.64-2.25,0-4.17-.6-5.77-1.8Z"/>
        <path class="cls-3" d="m36.03,67.31h6.09v5.72l-.6-.32c.06-.86.28-1.65.65-2.35s.83-1.33,1.38-1.87,1.17-.95,1.85-1.22c.68-.28,1.37-.42,2.08-.42,1.2,0,2.25.21,3.14.65.89.43,1.71,1.09,2.44,1.98l-2.44,5.07-.14.37-.42-.14c-.12-.25-.22-.51-.28-.81-.06-.29-.28-.62-.65-.99-.34-.31-.73-.55-1.18-.74-.45-.18-.93-.28-1.45-.28-.65,0-1.23.1-1.75.29-.52.19-.98.49-1.38.91-.4.41-.71.97-.95,1.68-.23.71-.35,1.59-.35,2.66v10.89h-6.04v-21.08Z"/>
        <path class="cls-3" d="m61.91,88.76c-2.12,0-3.78-.56-4.96-1.69-1.18-1.12-1.78-2.58-1.78-4.38,0-1.17.23-2.25.69-3.24.46-.99,1.16-1.84,2.1-2.54.94-.7,2.13-1.26,3.58-1.66,1.45-.4,3.15-.61,5.12-.61.12,0,.32.02.58.05.26.03.54.05.85.05s.58.02.83.05l.09,4.24c-.18,0-.44,0-.76-.02s-.65-.02-.99,0c-.34.02-.62.02-.83.02-1.11,0-2.01.07-2.7.21-.69.14-1.22.35-1.59.62-.37.27-.62.57-.76.9-.14.33-.21.67-.21,1.01s.05.65.14.92c.09.27.24.49.44.67.2.17.43.32.69.43.26.12.56.17.9.17.65,0,1.19-.11,1.64-.34.45-.23.81-.61,1.11-1.14.29-.53.51-1.22.67-2.07.15-.85.23-1.87.23-3.08,0-1.61-.12-2.82-.37-3.64-.25-.82-.62-1.37-1.11-1.66-.49-.29-1.08-.43-1.75-.43-.86,0-1.64.12-2.33.37-.69.25-1.44.8-2.24,1.66l-3.32-3.51c1.17-1.17,2.46-2.01,3.88-2.51s2.86-.76,4.34-.76c1.23,0,2.38.14,3.46.42,1.08.28,2.02.76,2.84,1.43.81.67,1.45,1.6,1.91,2.79.46,1.19.69,2.71.69,4.56v12.34h-6.04v-1.85c-.34.37-.68.7-1.02.99-.34.29-.71.52-1.11.69-.4.17-.83.3-1.29.39-.46.09-1,.14-1.61.14Z"/>
        <path class="cls-3" d="m76.9,67.31h15.73l-.09,4.89h-15.73l.09-4.89Zm7.45,20.93c-.88-.34-1.62-.92-2.24-1.73-.62-.81-1.07-1.95-1.36-3.42s-.41-3.33-.35-5.59l.6-15.23,6.18-.77h.42l.05.45c-.15.21-.28.42-.39.63-.11.21-.18.57-.21,1.08l-.51,6.68.28.27-.32,6.59c-.09,1.76-.05,3.13.14,4.1s.49,1.64.92,2c.43.36.88.54,1.34.54.83,0,1.6-.17,2.31-.51.71-.34,1.31-.72,1.8-1.15l.97,4.34c-.92.74-1.95,1.3-3.07,1.68-1.12.38-2.33.58-3.62.58-1.08,0-2.05-.17-2.93-.52Z"/>
        <path class="cls-3" d="m104.07,88.76c-.8,0-1.55-.1-2.24-.31-.69-.21-1.32-.53-1.89-.96-.57-.43-1.05-.98-1.45-1.67-.4-.68-.71-1.52-.92-2.51-.21-.99-.32-2.14-.32-3.44v-12.57h6v12.6c0,.7.05,1.3.14,1.78.09.48.23.89.42,1.21.18.32.41.55.67.68.26.13.53.2.81.2.52,0,.97-.09,1.34-.29s.68-.48.95-.86c.26-.38.45-.84.58-1.38.12-.54.18-1.18.18-1.91v-12.03h6v17.73c0,.69.02,1.29.07,1.81s.16,1.04.35,1.54h-5.35c-.15-.27-.26-.53-.32-.8-.06-.26-.1-.55-.12-.85-.02-.3-.02-.6-.02-.9-.25.46-.55.88-.92,1.25s-.76.68-1.18.92c-.42.25-.86.43-1.34.55-.48.12-.95.18-1.41.18Z"/>
        <path class="cls-3" d="m119.29,88.39v-4.89h4.71v-11.3h-4.43v-4.89h10.43v16.19h4.29v4.89h-14.99Zm7.43-25.51c-.99,0-1.84-.35-2.56-1.04-.72-.69-1.08-1.5-1.08-2.42,0-1.01.35-1.84,1.04-2.49.69-.65,1.56-.97,2.61-.97.95,0,1.79.35,2.51,1.04s1.08,1.5,1.08,2.42-.36,1.73-1.08,2.42c-.72.69-1.56,1.04-2.51,1.04Z"/>
        <path class="cls-3" d="m139.18,67.31h15.73l-.09,4.89h-15.73l.09-4.89Zm7.45,20.93c-.88-.34-1.62-.92-2.24-1.73-.62-.81-1.07-1.95-1.36-3.42s-.41-3.33-.35-5.59l.6-15.23,6.18-.77h.42l.05.45c-.15.21-.28.42-.39.63-.11.21-.18.57-.21,1.08l-.51,6.68.28.27-.32,6.59c-.09,1.76-.05,3.13.14,4.1s.49,1.64.92,2c.43.36.88.54,1.34.54.83,0,1.6-.17,2.31-.51.71-.34,1.31-.72,1.8-1.15l.97,4.34c-.92.74-1.95,1.3-3.07,1.68-1.12.38-2.33.58-3.62.58-1.08,0-2.05-.17-2.93-.52Z"/>
        <path class="cls-3" d="m168.19,88.76c-1.78,0-3.39-.42-4.82-1.24-1.43-.83-2.57-2.06-3.41-3.69s-1.27-3.62-1.27-5.96.42-4.2,1.27-5.84,1.98-2.92,3.41-3.82c1.43-.9,3.04-1.36,4.82-1.36s3.4.45,4.84,1.36c1.44.9,2.6,2.18,3.46,3.82s1.29,3.59,1.29,5.84-.43,4.28-1.29,5.91c-.86,1.63-2.01,2.87-3.46,3.71-1.45.84-3.06,1.27-4.84,1.27Zm0-4.94c.77,0,1.42-.24,1.96-.71s.97-1.16,1.29-2.05c.32-.89.48-1.96.48-3.19,0-1.32-.16-2.43-.48-3.32-.32-.89-.75-1.57-1.29-2.03-.54-.46-1.19-.69-1.96-.69-.68,0-1.29.23-1.84.69-.55.46-.98,1.14-1.29,2.03s-.46,2-.46,3.32c0,1.24.15,2.3.44,3.19.29.89.71,1.58,1.27,2.05s1.18.71,1.89.71Z"/>
        <path class="cls-3" d="m185.86,88.43c-1.14-.21-2.18-.55-3.14-.99-.95-.45-1.8-1.04-2.54-1.78l2.26-4.71.18-.37.37.23c.12.22.24.44.35.67.11.23.36.52.76.85.74.52,1.53.92,2.38,1.2s1.82.42,2.93.42c.58,0,1.09-.07,1.52-.22.43-.15.76-.35.99-.6.23-.25.35-.53.35-.82s-.09-.55-.28-.78c-.18-.22-.44-.42-.76-.6-.32-.18-.75-.36-1.29-.55-.54-.19-1.18-.41-1.91-.64-1.32-.38-2.48-.86-3.48-1.42-1-.56-1.78-1.26-2.33-2.08-.55-.83-.83-1.83-.83-3.02s.34-2.22,1.02-3.19c.68-.98,1.61-1.75,2.81-2.33,1.2-.58,2.6-.86,4.2-.86.77,0,1.52.07,2.26.21.74.14,1.44.33,2.12.58.68.25,1.31.57,1.91.97s1.16.86,1.68,1.38l-2.72,4.06-.23.42-.42-.32c-.03-.25-.1-.47-.21-.67-.11-.2-.36-.47-.76-.81-.49-.34-1.04-.58-1.64-.72-.6-.14-1.21-.21-1.82-.21-.8,0-1.49.12-2.08.37-.58.25-.88.61-.88,1.08,0,.38.16.71.48.98.32.27.8.5,1.43.71.63.21,1.44.44,2.42.71,1.51.35,2.75.84,3.71,1.44.97.61,1.68,1.32,2.14,2.15.46.83.69,1.82.69,2.97,0,1.24-.32,2.37-.97,3.37-.65,1.01-1.58,1.8-2.79,2.37-1.22.58-2.65.87-4.31.87-1.26,0-2.46-.11-3.6-.32Z"/>
      </g>
    </g>
  </g>
</svg>