<?xml version="1.0" encoding="UTF-8"?>
<svg id="Camada_2" data-name="Camada 2" xmlns="http://www.w3.org/2000/svg" xmlns:xlink="http://www.w3.org/1999/xlink" viewBox="0 0 500.25 7821.14">
  <defs>
    <style>
      .cls-1 {
        fill: url(#linear-gradient);
      }

      .cls-2 {
        fill: none;
        stroke: #37353d;
        stroke-miterlimit: 10;
        stroke-width: .5px;
      }
    </style>
    <linearGradient id="linear-gradient" x1="-3412.64" y1="7602.35" x2="2658.32" y2="1482.63" gradientUnits="userSpaceOnUse">
      <stop offset="0" stop-color="#06f"/>
      <stop offset=".4" stop-color="#050404"/>
      <stop offset="1" stop-color="#100523"/>
    </linearGradient>
  </defs>
  <g id="Main_Page_Assets" data-name="Main Page Assets">
    <rect id="Base" class="cls-1" x="0" y="0" width="500" height="7820.6"/>
    <g id="Lines">
      <g>
        <line class="cls-2" x1="10.63" y1="6.26" x2="10.63" y2="2886.45"/>
        <line class="cls-2" x1="43.25" y1="6.26" x2="43.25" y2="2886.45"/>
        <line class="cls-2" x1="75.88" y1="6.26" x2="75.88" y2="2886.45"/>
        <line class="cls-2" x1="108.5" y1="6.26" x2="108.5" y2="2886.45"/>
        <line class="cls-2" x1="141.13" y1="6.26" x2="141.13" y2="2886.45"/>
        <line class="cls-2" x1="173.75" y1="6.26" x2="173.75" y2="2886.45"/>
        <line class="cls-2" x1="206.38" y1="6.26" x2="206.38" y2="2886.45"/>
        <line class="cls-2" x1="239" y1="6.26" x2="239" y2="2886.45"/>
        <line class="cls-2" x1="271.63" y1="6.26" x2="271.63" y2="2886.45"/>
        <line class="cls-2" x1="304.25" y1="6.26" x2="304.25" y2="2886.45"/>
        <line class="cls-2" x1="336.88" y1="6.26" x2="336.88" y2="2886.45"/>
        <line class="cls-2" x1="369.5" y1="6.26" x2="369.5" y2="2886.45"/>
        <line class="cls-2" x1="402.13" y1="6.26" x2="402.13" y2="2886.45"/>
        <line class="cls-2" x1="434.75" y1="6.26" x2="434.75" y2="2886.45"/>
        <line class="cls-2" x1="467.38" y1="6.26" x2="467.38" y2="2886.45"/>
        <line class="cls-2" x1="500" y1="6.26" x2="500" y2="2886.45"/>
      </g>
      <g>
        <line class="cls-2" x1="499.41" y1="6.38" y2="6.38"/>
        <line class="cls-2" x1="499.41" y1="82.71" y2="82.71"/>
        <line class="cls-2" x1="499.41" y1="159.03" y2="159.03"/>
        <line class="cls-2" x1="499.41" y1="235.36" y2="235.36"/>
        <line class="cls-2" x1="499.41" y1="311.69" y2="311.69"/>
        <line class="cls-2" x1="499.41" y1="388.02" y2="388.02"/>
        <line class="cls-2" x1="499.41" y1="464.35" y2="464.35"/>
        <line class="cls-2" x1="499.41" y1="540.68" y2="540.68"/>
        <line class="cls-2" x1="499.41" y1="617.01" y2="617.01"/>
        <line class="cls-2" x1="499.41" y1="693.33" y2="693.33"/>
        <line class="cls-2" x1="499.41" y1="769.66" y2="769.66"/>
        <line class="cls-2" x1="499.41" y1="845.99" y2="845.99"/>
        <line class="cls-2" x1="499.41" y1="922.32" y2="922.32"/>
        <line class="cls-2" x1="499.41" y1="998.65" y2="998.65"/>
        <line class="cls-2" x1="499.41" y1="1074.98" y2="1074.98"/>
        <line class="cls-2" x1="499.41" y1="1151.3" y2="1151.3"/>
      </g>
      <g>
        <line class="cls-2" x1="499.41" y1="1227.63" y2="1227.63"/>
        <line class="cls-2" x1="499.41" y1="1303.96" y2="1303.96"/>
        <line class="cls-2" x1="499.41" y1="1380.29" y2="1380.29"/>
        <line class="cls-2" x1="499.41" y1="1456.62" y2="1456.62"/>
        <line class="cls-2" x1="499.41" y1="1532.95" y2="1532.95"/>
        <line class="cls-2" x1="499.41" y1="1609.27" y2="1609.27"/>
        <line class="cls-2" x1="499.41" y1="1685.6" y2="1685.6"/>
        <line class="cls-2" x1="499.41" y1="1761.93" y2="1761.93"/>
        <line class="cls-2" x1="499.41" y1="1838.26" y2="1838.26"/>
      </g>
      <g>
        <line class="cls-2" x1="499.41" y1="1914.71" y2="1914.71"/>
        <line class="cls-2" x1="499.41" y1="1991.03" y2="1991.03"/>
        <line class="cls-2" x1="499.41" y1="2067.36" y2="2067.36"/>
        <line class="cls-2" x1="499.41" y1="2143.69" y2="2143.69"/>
        <line class="cls-2" x1="499.41" y1="2220.02" y2="2220.02"/>
        <line class="cls-2" x1="499.41" y1="2296.35" y2="2296.35"/>
        <line class="cls-2" x1="499.41" y1="2372.68" y2="2372.68"/>
        <line class="cls-2" x1="499.41" y1="2449" y2="2449"/>
        <line class="cls-2" x1="499.41" y1="2525.33" y2="2525.33"/>
        <line class="cls-2" x1="499.41" y1="2601.66" y2="2601.66"/>
      </g>
    </g>
    <g id="Lines-2" data-name="Lines">
      <g>
        <line class="cls-2" x1="10.63" y1="2600.67" x2="10.63" y2="5496.86"/>
        <line class="cls-2" x1="43.25" y1="2600.67" x2="43.25" y2="5496.86"/>
        <line class="cls-2" x1="75.88" y1="2600.67" x2="75.88" y2="5496.86"/>
        <line class="cls-2" x1="108.5" y1="2600.67" x2="108.5" y2="5496.86"/>
        <line class="cls-2" x1="141.13" y1="2600.67" x2="141.13" y2="5496.86"/>
        <line class="cls-2" x1="173.75" y1="2600.67" x2="173.75" y2="5496.86"/>
        <line class="cls-2" x1="206.38" y1="2600.67" x2="206.38" y2="5496.86"/>
        <line class="cls-2" x1="239" y1="2600.67" x2="239" y2="5496.86"/>
        <line class="cls-2" x1="271.63" y1="2600.67" x2="271.63" y2="5496.86"/>
        <line class="cls-2" x1="304.25" y1="2600.67" x2="304.25" y2="5496.86"/>
        <line class="cls-2" x1="336.88" y1="2600.67" x2="336.88" y2="5496.86"/>
        <line class="cls-2" x1="369.5" y1="2600.67" x2="369.5" y2="5496.86"/>
        <line class="cls-2" x1="402.13" y1="2600.67" x2="402.13" y2="5496.86"/>
        <line class="cls-2" x1="434.75" y1="2600.67" x2="434.75" y2="5496.86"/>
        <line class="cls-2" x1="467.38" y1="2600.67" x2="467.38" y2="5496.86"/>
        <line class="cls-2" x1="500" y1="2600.67" x2="500" y2="5496.86"/>
      </g>
      <g>
        <line class="cls-2" x1="499.41" y1="2600.78" y2="2600.78"/>
        <line class="cls-2" x1="499.41" y1="2677.54" y2="2677.54"/>
        <line class="cls-2" x1="499.41" y1="2754.29" y2="2754.29"/>
        <line class="cls-2" x1="499.41" y1="2831.04" y2="2831.04"/>
        <line class="cls-2" x1="499.41" y1="2907.79" y2="2907.79"/>
        <line class="cls-2" x1="499.41" y1="2984.55" y2="2984.55"/>
        <line class="cls-2" x1="499.41" y1="3061.3" y2="3061.3"/>
        <line class="cls-2" x1="499.41" y1="3138.05" y2="3138.05"/>
        <line class="cls-2" x1="499.41" y1="3214.8" y2="3214.8"/>
        <line class="cls-2" x1="499.41" y1="3291.56" y2="3291.56"/>
        <line class="cls-2" x1="499.41" y1="3368.31" y2="3368.31"/>
        <line class="cls-2" x1="499.41" y1="3445.06" y2="3445.06"/>
        <line class="cls-2" x1="499.41" y1="3521.81" y2="3521.81"/>
        <line class="cls-2" x1="499.41" y1="3598.57" y2="3598.57"/>
        <line class="cls-2" x1="499.41" y1="3675.32" y2="3675.32"/>
        <line class="cls-2" x1="499.41" y1="3752.07" y2="3752.07"/>
      </g>
      <g>
        <line class="cls-2" x1="499.41" y1="3828.82" y2="3828.82"/>
        <line class="cls-2" x1="499.41" y1="3905.58" y2="3905.58"/>
        <line class="cls-2" x1="499.41" y1="3982.33" y2="3982.33"/>
        <line class="cls-2" x1="499.41" y1="4059.08" y2="4059.08"/>
        <line class="cls-2" x1="499.41" y1="4135.83" y2="4135.83"/>
        <line class="cls-2" x1="499.41" y1="4212.59" y2="4212.59"/>
        <line class="cls-2" x1="499.41" y1="4289.34" y2="4289.34"/>
        <line class="cls-2" x1="499.41" y1="4366.09" y2="4366.09"/>
        <line class="cls-2" x1="499.41" y1="4442.84" y2="4442.84"/>
      </g>
      <g>
        <line class="cls-2" x1="499.41" y1="4519.71" y2="4519.71"/>
        <line class="cls-2" x1="499.41" y1="4596.47" y2="4596.47"/>
        <line class="cls-2" x1="499.41" y1="4673.22" y2="4673.22"/>
        <line class="cls-2" x1="499.41" y1="4749.97" y2="4749.97"/>
        <line class="cls-2" x1="499.41" y1="4826.72" y2="4826.72"/>
        <line class="cls-2" x1="499.41" y1="4903.48" y2="4903.48"/>
        <line class="cls-2" x1="499.41" y1="4980.23" y2="4980.23"/>
        <line class="cls-2" x1="499.41" y1="5056.98" y2="5056.98"/>
        <line class="cls-2" x1="499.41" y1="5133.73" y2="5133.73"/>
        <line class="cls-2" x1="499.41" y1="5210.49" y2="5210.49"/>
      </g>
    </g>
    <g id="Lines-3" data-name="Lines">
      <g>
        <line class="cls-2" x1="10.63" y1="5211.07" x2="10.63" y2="7809.26"/>
        <line class="cls-2" x1="43.25" y1="5211.07" x2="43.25" y2="7809.26"/>
        <line class="cls-2" x1="75.88" y1="5211.07" x2="75.88" y2="7809.26"/>
        <line class="cls-2" x1="108.5" y1="5211.07" x2="108.5" y2="7809.26"/>
        <line class="cls-2" x1="141.13" y1="5211.07" x2="141.13" y2="7809.26"/>
        <line class="cls-2" x1="173.75" y1="5211.07" x2="173.75" y2="7809.26"/>
        <line class="cls-2" x1="206.38" y1="5211.07" x2="206.38" y2="7809.26"/>
        <line class="cls-2" x1="239" y1="5211.07" x2="239" y2="7809.26"/>
        <line class="cls-2" x1="271.63" y1="5211.07" x2="271.63" y2="7809.26"/>
        <line class="cls-2" x1="304.25" y1="5211.07" x2="304.25" y2="7809.26"/>
        <line class="cls-2" x1="336.88" y1="5211.07" x2="336.88" y2="7809.26"/>
        <line class="cls-2" x1="369.5" y1="5211.07" x2="369.5" y2="7809.26"/>
        <line class="cls-2" x1="402.13" y1="5211.07" x2="402.13" y2="7809.26"/>
        <line class="cls-2" x1="434.75" y1="5211.07" x2="434.75" y2="7809.26"/>
        <line class="cls-2" x1="467.38" y1="5211.07" x2="467.38" y2="7809.26"/>
        <line class="cls-2" x1="500" y1="5211.07" x2="500" y2="7809.26"/>
      </g>
      <g>
        <line class="cls-2" x1="499.41" y1="5211.19" y2="5211.19"/>
        <line class="cls-2" x1="499.41" y1="5287.94" y2="5287.94"/>
        <line class="cls-2" x1="499.41" y1="5364.7" y2="5364.7"/>
        <line class="cls-2" x1="499.41" y1="5441.45" y2="5441.45"/>
        <line class="cls-2" x1="499.41" y1="5518.2" y2="5518.2"/>
        <line class="cls-2" x1="499.41" y1="5594.95" y2="5594.95"/>
        <line class="cls-2" x1="499.41" y1="5671.71" y2="5671.71"/>
        <line class="cls-2" x1="499.41" y1="5748.46" y2="5748.46"/>
        <line class="cls-2" x1="499.41" y1="5825.21" y2="5825.21"/>
        <line class="cls-2" x1="499.41" y1="5901.96" y2="5901.96"/>
        <line class="cls-2" x1="499.41" y1="5978.71" y2="5978.71"/>
        <line class="cls-2" x1="499.41" y1="6055.47" y2="6055.47"/>
        <line class="cls-2" x1="499.41" y1="6132.22" y2="6132.22"/>
        <line class="cls-2" x1="499.41" y1="6208.97" y2="6208.97"/>
        <line class="cls-2" x1="499.41" y1="6285.72" y2="6285.72"/>
        <line class="cls-2" x1="499.41" y1="6362.48" y2="6362.48"/>
      </g>
      <g>
        <line class="cls-2" x1="499.41" y1="6439.23" y2="6439.23"/>
        <line class="cls-2" x1="499.41" y1="6515.98" y2="6515.98"/>
        <line class="cls-2" x1="499.41" y1="6592.73" y2="6592.73"/>
        <line class="cls-2" x1="499.41" y1="6669.49" y2="6669.49"/>
        <line class="cls-2" x1="499.41" y1="6746.24" y2="6746.24"/>
        <line class="cls-2" x1="499.41" y1="6822.99" y2="6822.99"/>
        <line class="cls-2" x1="499.41" y1="6899.74" y2="6899.74"/>
        <line class="cls-2" x1="499.41" y1="6976.5" y2="6976.5"/>
        <line class="cls-2" x1="499.41" y1="7053.25" y2="7053.25"/>
      </g>
      <g>
        <line class="cls-2" x1="499.41" y1="7130.12" y2="7130.12"/>
        <line class="cls-2" x1="499.41" y1="7206.87" y2="7206.87"/>
        <line class="cls-2" x1="499.41" y1="7283.62" y2="7283.62"/>
        <line class="cls-2" x1="499.41" y1="7360.38" y2="7360.38"/>
        <line class="cls-2" x1="499.41" y1="7437.13" y2="7437.13"/>
        <line class="cls-2" x1="499.41" y1="7513.88" y2="7513.88"/>
        <line class="cls-2" x1="499.41" y1="7590.63" y2="7590.63"/>
        <line class="cls-2" x1="499.41" y1="7667.39" y2="7667.39"/>
        <line class="cls-2" x1="499.41" y1="7744.14" y2="7744.14"/>
        <line class="cls-2" x1="499.41" y1="7820.89" y2="7820.89"/>
      </g>
    </g>
  </g>
</svg>