<?xml version="1.0" encoding="utf-8"?>
<!-- Generator: Adobe Illustrator 27.2.0, SVG Export Plug-In . SVG Version: 6.00 Build 0)  -->
<svg version="1.1" id="Camada_2_00000165925343474570531630000003331159495690230153_"
	 xmlns="http://www.w3.org/2000/svg" xmlns:xlink="http://www.w3.org/1999/xlink" x="0px" y="0px" viewBox="0 0 1932 5020"
	 style="enable-background:new 0 0 1932 5020;" xml:space="preserve">
<style type="text/css">
	.st0{fill:url(#Base_00000150781267816143649320000009240867531344980878_);}
	.st1{fill:none;stroke:#37353D;stroke-width:0.5;stroke-miterlimit:10;}
</style>
<g id="Main_Page_Assets">
	
		<linearGradient id="Base_00000039844990968545544190000002394539429928912774_" gradientUnits="userSpaceOnUse" x1="-2088.7693" y1="-568.4808" x2="2974.6306" y2="4535.5894" gradientTransform="matrix(1 0 0 -1 0 5020)">
		<stop  offset="0" style="stop-color:#0066FF"/>
		<stop  offset="0.4" style="stop-color:#050404"/>
		<stop  offset="1" style="stop-color:#100523"/>
	</linearGradient>
	
		<rect id="Base" y="-0.7" style="fill:url(#Base_00000039844990968545544190000002394539429928912774_);" width="1932" height="5019.8"/>
	<g id="Lines">
		<g>
			<line class="st1" x1="41" y1="125.3" x2="41" y2="5019.3"/>
			<line class="st1" x1="166.7" y1="125.3" x2="166.7" y2="5019.3"/>
			<line class="st1" x1="292.4" y1="125.3" x2="292.4" y2="5019.3"/>
			<line class="st1" x1="418.2" y1="125.3" x2="418.2" y2="5019.3"/>
			<line class="st1" x1="543.9" y1="125.3" x2="543.9" y2="5019.3"/>
			<line class="st1" x1="669.6" y1="125.3" x2="669.6" y2="5019.3"/>
			<line class="st1" x1="795.4" y1="125.3" x2="795.4" y2="5019.3"/>
			<line class="st1" x1="921.1" y1="125.3" x2="921.1" y2="5019.3"/>
			<line class="st1" x1="1046.8" y1="125.3" x2="1046.8" y2="5019.3"/>
			<line class="st1" x1="1172.6" y1="125.3" x2="1172.6" y2="5019.3"/>
			<line class="st1" x1="1298.3" y1="125.3" x2="1298.3" y2="5019.3"/>
			<line class="st1" x1="1424.1" y1="125.3" x2="1424.1" y2="5019.3"/>
			<line class="st1" x1="1549.8" y1="125.3" x2="1549.8" y2="5019.3"/>
			<line class="st1" x1="1675.5" y1="125.3" x2="1675.5" y2="5019.3"/>
			<line class="st1" x1="1801.3" y1="125.3" x2="1801.3" y2="5019.3"/>
			<line class="st1" x1="1927" y1="125.3" x2="1927" y2="5019.3"/>
		</g>
		<g>
			<line class="st1" x1="1924.7" y1="125.5" x2="0" y2="125.5"/>
			<line class="st1" x1="1924.7" y1="255.2" x2="0" y2="255.2"/>
			<line class="st1" x1="1924.7" y1="384.9" x2="0" y2="384.9"/>
			<line class="st1" x1="1924.7" y1="514.6" x2="0" y2="514.6"/>
			<line class="st1" x1="1924.7" y1="644.3" x2="0" y2="644.3"/>
			<line class="st1" x1="1924.7" y1="774" x2="0" y2="774"/>
			<line class="st1" x1="1924.7" y1="903.7" x2="0" y2="903.7"/>
			<line class="st1" x1="1924.7" y1="1033.4" x2="0" y2="1033.4"/>
			<line class="st1" x1="1924.7" y1="1163.1" x2="0" y2="1163.1"/>
			<line class="st1" x1="1924.7" y1="1292.8" x2="0" y2="1292.8"/>
			<line class="st1" x1="1924.7" y1="1422.5" x2="0" y2="1422.5"/>
			<line class="st1" x1="1924.7" y1="1552.2" x2="0" y2="1552.2"/>
			<line class="st1" x1="1924.7" y1="1681.9" x2="0" y2="1681.9"/>
			<line class="st1" x1="1924.7" y1="1811.6" x2="0" y2="1811.6"/>
			<line class="st1" x1="1924.7" y1="1941.2" x2="0" y2="1941.2"/>
			<line class="st1" x1="1924.7" y1="2070.9" x2="0" y2="2070.9"/>
		</g>
		<g>
			<line class="st1" x1="1924.7" y1="2200.7" x2="0" y2="2200.7"/>
			<line class="st1" x1="1924.7" y1="2330.3" x2="0" y2="2330.3"/>
			<line class="st1" x1="1924.7" y1="2460" x2="0" y2="2460"/>
			<line class="st1" x1="1924.7" y1="2589.7" x2="0" y2="2589.7"/>
			<line class="st1" x1="1924.7" y1="2719.4" x2="0" y2="2719.4"/>
			<line class="st1" x1="1924.7" y1="2849.1" x2="0" y2="2849.1"/>
			<line class="st1" x1="1924.7" y1="2978.8" x2="0" y2="2978.8"/>
			<line class="st1" x1="1924.7" y1="3108.5" x2="0" y2="3108.5"/>
			<line class="st1" x1="1924.7" y1="3238.2" x2="0" y2="3238.2"/>
		</g>
		<g>
			<line class="st1" x1="1924.7" y1="3368.1" x2="0" y2="3368.1"/>
			<line class="st1" x1="1924.7" y1="3497.8" x2="0" y2="3497.8"/>
			<line class="st1" x1="1924.7" y1="3627.5" x2="0" y2="3627.5"/>
			<line class="st1" x1="1924.7" y1="3757.2" x2="0" y2="3757.2"/>
			<line class="st1" x1="1924.7" y1="3886.9" x2="0" y2="3886.9"/>
			<line class="st1" x1="1924.7" y1="4016.6" x2="0" y2="4016.6"/>
			<line class="st1" x1="1924.7" y1="4146.3" x2="0" y2="4146.3"/>
			<line class="st1" x1="1924.7" y1="4276" x2="0" y2="4276"/>
			<line class="st1" x1="1924.7" y1="4405.7" x2="0" y2="4405.7"/>
			<line class="st1" x1="1924.7" y1="4535.4" x2="0" y2="4535.4"/>
		</g>
	</g>
	<g id="Lines_00000130645096203331207340000009583578710832170374_">
		<g>
			<line class="st1" x1="41" y1="-3.9" x2="41" y2="4890.1"/>
			<line class="st1" x1="166.7" y1="-3.9" x2="166.7" y2="4890.1"/>
			<line class="st1" x1="292.4" y1="-3.9" x2="292.4" y2="4890.1"/>
			<line class="st1" x1="418.2" y1="-3.9" x2="418.2" y2="4890.1"/>
			<line class="st1" x1="543.9" y1="-3.9" x2="543.9" y2="4890.1"/>
			<line class="st1" x1="669.6" y1="-3.9" x2="669.6" y2="4890.1"/>
			<line class="st1" x1="795.4" y1="-3.9" x2="795.4" y2="4890.1"/>
			<line class="st1" x1="921.1" y1="-3.9" x2="921.1" y2="4890.1"/>
			<line class="st1" x1="1046.8" y1="-3.9" x2="1046.8" y2="4890.1"/>
			<line class="st1" x1="1172.6" y1="-3.9" x2="1172.6" y2="4890.1"/>
			<line class="st1" x1="1298.3" y1="-3.9" x2="1298.3" y2="4890.1"/>
			<line class="st1" x1="1424.1" y1="-3.9" x2="1424.1" y2="4890.1"/>
			<line class="st1" x1="1549.8" y1="-3.9" x2="1549.8" y2="4890.1"/>
			<line class="st1" x1="1675.5" y1="-3.9" x2="1675.5" y2="4890.1"/>
			<line class="st1" x1="1801.3" y1="-3.9" x2="1801.3" y2="4890.1"/>
			<line class="st1" x1="1927" y1="-3.9" x2="1927" y2="4890.1"/>
		</g>
		<g>
			<line class="st1" x1="1924.7" y1="-3.7" x2="0" y2="-3.7"/>
			<line class="st1" x1="1924.7" y1="126" x2="0" y2="126"/>
			<line class="st1" x1="1924.7" y1="255.7" x2="0" y2="255.7"/>
			<line class="st1" x1="1924.7" y1="385.4" x2="0" y2="385.4"/>
			<line class="st1" x1="1924.7" y1="515.1" x2="0" y2="515.1"/>
			<line class="st1" x1="1924.7" y1="644.8" x2="0" y2="644.8"/>
			<line class="st1" x1="1924.7" y1="774.5" x2="0" y2="774.5"/>
			<line class="st1" x1="1924.7" y1="904.2" x2="0" y2="904.2"/>
			<line class="st1" x1="1924.7" y1="1033.9" x2="0" y2="1033.9"/>
			<line class="st1" x1="1924.7" y1="1163.6" x2="0" y2="1163.6"/>
			<line class="st1" x1="1924.7" y1="1293.3" x2="0" y2="1293.3"/>
			<line class="st1" x1="1924.7" y1="1423" x2="0" y2="1423"/>
			<line class="st1" x1="1924.7" y1="1552.7" x2="0" y2="1552.7"/>
			<line class="st1" x1="1924.7" y1="1682.3" x2="0" y2="1682.3"/>
			<line class="st1" x1="1924.7" y1="1812" x2="0" y2="1812"/>
			<line class="st1" x1="1924.7" y1="1941.7" x2="0" y2="1941.7"/>
		</g>
		<g>
			<line class="st1" x1="1924.7" y1="2071.5" x2="0" y2="2071.5"/>
			<line class="st1" x1="1924.7" y1="2201.1" x2="0" y2="2201.1"/>
			<line class="st1" x1="1924.7" y1="2330.8" x2="0" y2="2330.8"/>
			<line class="st1" x1="1924.7" y1="2460.5" x2="0" y2="2460.5"/>
			<line class="st1" x1="1924.7" y1="2590.2" x2="0" y2="2590.2"/>
			<line class="st1" x1="1924.7" y1="2719.9" x2="0" y2="2719.9"/>
			<line class="st1" x1="1924.7" y1="2849.6" x2="0" y2="2849.6"/>
			<line class="st1" x1="1924.7" y1="2979.3" x2="0" y2="2979.3"/>
			<line class="st1" x1="1924.7" y1="3109" x2="0" y2="3109"/>
		</g>
		<g>
			<line class="st1" x1="1924.7" y1="3238.9" x2="0" y2="3238.9"/>
			<line class="st1" x1="1924.7" y1="3368.6" x2="0" y2="3368.6"/>
			<line class="st1" x1="1924.7" y1="3498.3" x2="0" y2="3498.3"/>
			<line class="st1" x1="1924.7" y1="3628" x2="0" y2="3628"/>
			<line class="st1" x1="1924.7" y1="3757.7" x2="0" y2="3757.7"/>
			<line class="st1" x1="1924.7" y1="3887.4" x2="0" y2="3887.4"/>
			<line class="st1" x1="1924.7" y1="4017.1" x2="0" y2="4017.1"/>
			<line class="st1" x1="1924.7" y1="4146.8" x2="0" y2="4146.8"/>
			<line class="st1" x1="1924.7" y1="4276.5" x2="0" y2="4276.5"/>
			<line class="st1" x1="1924.7" y1="4406.2" x2="0" y2="4406.2"/>
		</g>
	</g>
	<g id="Lines_00000058566554482616969510000002390817541309332654_">
		<g>
			<line class="st1" x1="41" y1="512.9" x2="41" y2="5406.9"/>
			<line class="st1" x1="166.7" y1="512.9" x2="166.7" y2="5406.9"/>
			<line class="st1" x1="292.4" y1="512.9" x2="292.4" y2="5406.9"/>
			<line class="st1" x1="418.2" y1="512.9" x2="418.2" y2="5406.9"/>
			<line class="st1" x1="543.9" y1="512.9" x2="543.9" y2="5406.9"/>
			<line class="st1" x1="669.6" y1="512.9" x2="669.6" y2="5406.9"/>
			<line class="st1" x1="795.4" y1="512.9" x2="795.4" y2="5406.9"/>
			<line class="st1" x1="921.1" y1="512.9" x2="921.1" y2="5406.9"/>
			<line class="st1" x1="1046.8" y1="512.9" x2="1046.8" y2="5406.9"/>
			<line class="st1" x1="1172.6" y1="512.9" x2="1172.6" y2="5406.9"/>
			<line class="st1" x1="1298.3" y1="512.9" x2="1298.3" y2="5406.9"/>
			<line class="st1" x1="1424.1" y1="512.9" x2="1424.1" y2="5406.9"/>
			<line class="st1" x1="1549.8" y1="512.9" x2="1549.8" y2="5406.9"/>
			<line class="st1" x1="1675.5" y1="512.9" x2="1675.5" y2="5406.9"/>
			<line class="st1" x1="1801.3" y1="512.9" x2="1801.3" y2="5406.9"/>
			<line class="st1" x1="1927" y1="512.9" x2="1927" y2="5406.9"/>
		</g>
		<g>
			<line class="st1" x1="1924.7" y1="513.1" x2="0" y2="513.1"/>
			<line class="st1" x1="1924.7" y1="642.8" x2="0" y2="642.8"/>
			<line class="st1" x1="1924.7" y1="772.5" x2="0" y2="772.5"/>
			<line class="st1" x1="1924.7" y1="902.2" x2="0" y2="902.2"/>
			<line class="st1" x1="1924.7" y1="1031.9" x2="0" y2="1031.9"/>
			<line class="st1" x1="1924.7" y1="1161.6" x2="0" y2="1161.6"/>
			<line class="st1" x1="1924.7" y1="1291.3" x2="0" y2="1291.3"/>
			<line class="st1" x1="1924.7" y1="1421" x2="0" y2="1421"/>
			<line class="st1" x1="1924.7" y1="1550.7" x2="0" y2="1550.7"/>
			<line class="st1" x1="1924.7" y1="1680.4" x2="0" y2="1680.4"/>
			<line class="st1" x1="1924.7" y1="1810.1" x2="0" y2="1810.1"/>
			<line class="st1" x1="1924.7" y1="1939.8" x2="0" y2="1939.8"/>
			<line class="st1" x1="1924.7" y1="2069.5" x2="0" y2="2069.5"/>
			<line class="st1" x1="1924.7" y1="2199.2" x2="0" y2="2199.2"/>
			<line class="st1" x1="1924.7" y1="2328.9" x2="0" y2="2328.9"/>
			<line class="st1" x1="1924.7" y1="2458.6" x2="0" y2="2458.6"/>
		</g>
		<g>
			<line class="st1" x1="1924.7" y1="2588.3" x2="0" y2="2588.3"/>
			<line class="st1" x1="1924.7" y1="2718" x2="0" y2="2718"/>
			<line class="st1" x1="1924.7" y1="2847.7" x2="0" y2="2847.7"/>
			<line class="st1" x1="1924.7" y1="2977.4" x2="0" y2="2977.4"/>
			<line class="st1" x1="1924.7" y1="3107.1" x2="0" y2="3107.1"/>
			<line class="st1" x1="1924.7" y1="3236.8" x2="0" y2="3236.8"/>
			<line class="st1" x1="1924.7" y1="3366.5" x2="0" y2="3366.5"/>
			<line class="st1" x1="1924.7" y1="3496.2" x2="0" y2="3496.2"/>
			<line class="st1" x1="1924.7" y1="3625.9" x2="0" y2="3625.9"/>
		</g>
		<g>
			<line class="st1" x1="1924.7" y1="3755.8" x2="0" y2="3755.8"/>
			<line class="st1" x1="1924.7" y1="3885.4" x2="0" y2="3885.4"/>
			<line class="st1" x1="1924.7" y1="4015.1" x2="0" y2="4015.1"/>
			<line class="st1" x1="1924.7" y1="4144.8" x2="0" y2="4144.8"/>
			<line class="st1" x1="1924.7" y1="4274.5" x2="0" y2="4274.5"/>
			<line class="st1" x1="1924.7" y1="4404.2" x2="0" y2="4404.2"/>
			<line class="st1" x1="1924.7" y1="4533.9" x2="0" y2="4533.9"/>
			<line class="st1" x1="1924.7" y1="4663.6" x2="0" y2="4663.6"/>
			<line class="st1" x1="1924.7" y1="4793.3" x2="0" y2="4793.3"/>
			<line class="st1" x1="1924.7" y1="4923" x2="0" y2="4923"/>
		</g>
	</g>
</g>
</svg>
