<?xml version="1.0" encoding="UTF-8"?>
<svg id="Camada_2" data-name="Camada 2" xmlns="http://www.w3.org/2000/svg" xmlns:xlink="http://www.w3.org/1999/xlink" viewBox="0 0 872.71 147.75">
  <defs>
    <style>
      .cls-1 {
        fill: url(#linear-gradient);
      }

      .cls-2 {
        fill: #06f;
      }

      .cls-3 {
        fill: #fff;
      }

      .cls-4 {
        fill: url(#linear-gradient-3);
      }

      .cls-5 {
        fill: url(#linear-gradient-2);
      }
    </style>
    <linearGradient id="linear-gradient" x1="0" y1="73.88" x2="872.71" y2="73.88" gradientUnits="userSpaceOnUse">
      <stop offset="0" stop-color="#00b3c6"/>
      <stop offset="1" stop-color="#009cff"/>
    </linearGradient>
    <linearGradient id="linear-gradient-2" x1="716.9" y1="37.57" x2="720.33" y2="95.06" gradientUnits="userSpaceOnUse">
      <stop offset="0" stop-color="#00b3c6"/>
      <stop offset="1" stop-color="#06f"/>
    </linearGradient>
    <linearGradient id="linear-gradient-3" x1="774.53" y1="34.13" x2="777.97" y2="91.62" xlink:href="#linear-gradient-2"/>
  </defs>
  <g id="Main_Page_Assets" data-name="Main Page Assets">
    <g id="Logo">
      <path class="cls-1" d="m825.71,147.75H47C21.08,147.75,0,126.67,0,100.75v-53.75C0,21.08,21.08,0,47,0h778.71c25.92,0,47,21.08,47,47v53.75c0,25.92-21.08,47-47,47ZM47,6.61C24.73,6.61,6.61,24.73,6.61,47v53.75c0,22.27,18.12,40.4,40.4,40.4h778.71c22.27,0,40.4-18.12,40.4-40.4v-53.75c0-22.27-18.12-40.4-40.4-40.4H47Z"/>
      <g>
        <path class="cls-2" d="m69.41,108.27l27.84-80.39h14.26l-27.84,80.39h-14.26Z"/>
        <path class="cls-2" d="m104.26,108.27l27.84-80.39h14.26l-27.84,80.39h-14.26Z"/>
        <g>
          <path class="cls-3" d="m203.61,49.6c.98-.99,2.26-1.49,3.84-1.49.96,0,1.84.13,2.66.38.81.26,1.56.58,2.23.98l3.97-11.43c-1.29-.8-2.91-1.39-4.85-1.79-1.94-.4-3.87-.6-5.78-.6-6.07,0-10.77,1.66-14.09,4.99-3.32,3.33-4.98,7.81-4.98,13.44v1.11h-6.67v12.12h6.67v32.43h16.03v-32.43h10.46v-12.12h-10.97v-.94c0-2.1.49-3.66,1.48-4.65Z"/>
          <path class="cls-3" d="m261.15,55.7c-3.91-2.05-8.37-3.07-13.37-3.07s-9.45,1.02-13.33,3.07c-3.88,2.05-6.93,4.88-9.16,8.49-2.22,3.61-3.33,7.75-3.33,12.42s1.11,8.72,3.33,12.33c2.22,3.61,5.28,6.44,9.16,8.49,3.88,2.05,8.33,3.07,13.33,3.07s9.46-1.02,13.37-3.07c3.91-2.05,6.97-4.88,9.2-8.49,2.22-3.61,3.33-7.72,3.33-12.33s-1.11-8.8-3.33-12.42c-2.22-3.61-5.29-6.44-9.2-8.49Zm-5.06,26.84c-.87,1.68-2.03,2.94-3.46,3.8-1.44.85-3.05,1.28-4.85,1.28s-3.42-.43-4.85-1.28c-1.43-.85-2.59-2.12-3.46-3.8-.87-1.68-1.31-3.68-1.31-6.02s.44-4.38,1.31-5.97c.87-1.59,2.03-2.82,3.46-3.67,1.44-.85,3.05-1.28,4.85-1.28s3.42.43,4.85,1.28c1.43.85,2.58,2.08,3.46,3.67.87,1.59,1.31,3.58,1.31,5.97s-.43,4.34-1.31,6.02Z"/>
          <path class="cls-3" d="m302.71,59.01v-5.61h-15.36v46.34h16.03v-21.25c0-4.04,1.01-6.95,3.04-8.75s4.67-2.69,7.93-2.69c.56,0,1.13.02,1.69.04.56.03,1.21.1,1.94.21v-14.68c-4.33,0-8,.88-11.01,2.65-1.67.98-3.08,2.23-4.26,3.74Z"/>
          <path class="cls-3" d="m399.95,54.85c-2.78-1.48-5.95-2.22-9.49-2.22-4.27,0-8.06,1.08-11.35,3.24-1.74,1.14-3.24,2.5-4.51,4.07-1.04-1.67-2.34-3.05-3.88-4.11-3.09-2.13-6.72-3.2-10.89-3.2-3.6,0-6.86.85-9.79,2.56-1.42.83-2.68,1.85-3.8,3.05v-4.84h-15.36v46.34h16.03v-22.87c0-2.45.35-4.42,1.06-5.93.7-1.51,1.67-2.63,2.91-3.37,1.24-.74,2.62-1.11,4.13-1.11,2.19,0,3.89.75,5.1,2.26,1.21,1.51,1.81,3.91,1.81,7.21v23.81h16.03v-22.87c0-2.45.34-4.42,1.01-5.93.68-1.51,1.62-2.63,2.83-3.37,1.21-.74,2.6-1.11,4.18-1.11,2.14,0,3.82.75,5.06,2.26,1.24,1.51,1.86,3.91,1.86,7.21v23.81h16.03v-26.45c0-4.78-.8-8.67-2.4-11.69-1.6-3.01-3.8-5.26-6.58-6.74Z"/>
          <path class="cls-3" d="m462.13,57.83c-4.08-3.47-9.83-5.21-17.25-5.21-3.6,0-7.21.48-10.84,1.45-3.63.97-6.74,2.3-9.32,4.01l5.32,10.92c1.57-1.14,3.5-2.08,5.78-2.82,2.28-.74,4.52-1.11,6.71-1.11,3.38,0,5.84.7,7.38,2.09,1.4,1.27,2.16,3.02,2.29,5.25h-9.09c-4.67,0-8.51.55-11.52,1.66-3.01,1.11-5.23,2.72-6.67,4.82-1.43,2.1-2.15,4.58-2.15,7.42,0,2.62.66,5.01,1.98,7.17,1.32,2.16,3.26,3.87,5.82,5.12,2.56,1.25,5.64,1.88,9.24,1.88,3.99,0,7.22-.81,9.66-2.43,1.64-1.09,2.92-2.54,3.84-4.34v6h14.93v-25.69c0-7.34-2.04-12.74-6.12-16.21Zm-13,31.11c-1.43.88-3.05,1.32-4.85,1.32s-3.32-.44-4.39-1.32c-1.07-.88-1.6-2.01-1.6-3.37,0-1.48.52-2.62,1.56-3.41,1.04-.8,2.86-1.19,5.44-1.19h6.92v3.92c-.62,1.82-1.64,3.17-3.08,4.05Z"/>
          <path class="cls-3" d="m503.56,66.88c1.49-.85,3.16-1.28,5.02-1.28s3.57.5,5.15,1.49c1.58,1,2.9,2.57,3.97,4.74l12.4-6.48c-1.58-3.98-4.25-7.1-8.02-9.34-3.77-2.25-8.24-3.37-13.42-3.37s-9.65,1.04-13.58,3.12c-3.94,2.08-7.03,4.91-9.28,8.49-2.25,3.58-3.38,7.71-3.38,12.37s1.12,8.72,3.38,12.33c2.25,3.61,5.34,6.44,9.28,8.49,2.12,1.1,4.41,1.9,6.88,2.41l-2.07,8.52h3.21c1.35,0,2.32.2,2.91.6.59.4.89.88.89,1.45,0,.74-.32,1.32-.97,1.75-.65.43-1.7.64-3.16.64-1.07,0-2.05-.1-2.95-.3-.9-.2-1.69-.47-2.36-.81l-2.28,6.4c1.01.51,2.26.94,3.76,1.28,1.49.34,2.96.51,4.43.51,3.99,0,7.2-.8,9.62-2.39,2.42-1.59,3.63-3.73,3.63-6.4,0-1.65-.56-3.16-1.69-4.52-1.13-1.37-2.98-2.19-5.57-2.47l.9-3.63c4.51-.21,8.46-1.31,11.85-3.33,3.77-2.25,6.44-5.36,8.02-9.34l-12.4-6.4c-1.07,2.16-2.39,3.74-3.97,4.74-1.57,1-3.29,1.49-5.15,1.49s-3.53-.43-5.02-1.28c-1.49-.85-2.69-2.1-3.59-3.76-.9-1.65-1.35-3.64-1.35-5.97s.45-4.47,1.35-6.06c.9-1.59,2.09-2.82,3.59-3.67Z"/>
          <path class="cls-3" d="m555.49,44.44c.73-.8,1.63-1.19,2.7-1.19.79,0,1.57.27,2.36.81.79.54,1.66,1.15,2.62,1.84.96.68,2.02,1.28,3.21,1.79,1.18.51,2.47.77,3.88.77,3.32,0,5.93-1.22,7.85-3.67,1.91-2.45,2.9-5.66,2.95-9.64h-7.76c-.06,1.31-.45,2.36-1.18,3.16-.73.8-1.66,1.19-2.78,1.19-.73,0-1.49-.27-2.28-.81-.79-.54-1.67-1.15-2.66-1.84-.98-.68-2.07-1.29-3.25-1.83-1.18-.54-2.47-.81-3.88-.81-3.32,0-5.92,1.22-7.8,3.67-1.89,2.45-2.88,5.75-3,9.9h7.76c.11-1.42.54-2.53,1.27-3.33Z"/>
          <path class="cls-3" d="m579.24,57.83c-4.08-3.47-9.83-5.21-17.25-5.21-3.6,0-7.22.48-10.85,1.45-3.63.97-6.73,2.3-9.32,4.01l5.32,10.92c1.58-1.14,3.5-2.08,5.78-2.82,2.28-.74,4.51-1.11,6.71-1.11,3.38,0,5.84.7,7.38,2.09,1.41,1.27,2.17,3.02,2.3,5.25h-9.09c-4.67,0-8.51.55-11.52,1.66-3.01,1.11-5.23,2.72-6.67,4.82-1.43,2.1-2.15,4.58-2.15,7.42,0,2.62.66,5.01,1.98,7.17,1.32,2.16,3.26,3.87,5.82,5.12,2.56,1.25,5.64,1.88,9.24,1.88,3.99,0,7.21-.81,9.66-2.43,1.64-1.09,2.92-2.54,3.84-4.34v6h14.93v-25.69c0-7.34-2.04-12.74-6.12-16.21Zm-12.99,31.11c-1.43.88-3.05,1.32-4.85,1.32s-3.32-.44-4.39-1.32c-1.07-.88-1.6-2.01-1.6-3.37,0-1.48.52-2.62,1.56-3.41,1.04-.8,2.86-1.19,5.44-1.19h6.92v3.92c-.62,1.82-1.65,3.17-3.08,4.05Z"/>
          <path class="cls-3" d="m647.93,64.19c-2.22-3.61-5.29-6.44-9.2-8.49-3.91-2.05-8.37-3.07-13.37-3.07s-9.45,1.02-13.33,3.07c-3.88,2.05-6.93,4.88-9.16,8.49-2.22,3.61-3.33,7.75-3.33,12.42s1.11,8.72,3.33,12.33c2.22,3.61,5.27,6.44,9.16,8.49,3.88,2.05,8.32,3.07,13.33,3.07s9.46-1.02,13.37-3.07c3.91-2.05,6.97-4.88,9.2-8.49,2.22-3.61,3.33-7.72,3.33-12.33s-1.11-8.8-3.33-12.42Zm-14.26,18.35c-.87,1.68-2.03,2.94-3.46,3.8-1.43.85-3.05,1.28-4.85,1.28s-3.42-.43-4.85-1.28c-1.44-.85-2.59-2.12-3.46-3.8-.87-1.68-1.31-3.68-1.31-6.02s.43-4.38,1.31-5.97c.87-1.59,2.03-2.82,3.46-3.67,1.43-.85,3.05-1.28,4.85-1.28s3.42.43,4.85,1.28c1.44.85,2.59,2.08,3.46,3.67.87,1.59,1.31,3.58,1.31,5.97s-.44,4.34-1.31,6.02Z"/>
        </g>
        <path class="cls-5" d="m709.13,99.73v-46.34h-18.14v-13.4h52.9v13.4h-18.05v46.34h-16.71Z"/>
        <path class="cls-4" d="m777.06,100.93c-4.89,0-9.58-.61-14.05-1.83-4.47-1.22-8.09-2.77-10.84-4.65l5.48-12.54c2.64,1.71,5.7,3.11,9.15,4.22,3.46,1.11,6.91,1.66,10.34,1.66,2.36,0,4.23-.2,5.61-.6,1.38-.4,2.39-.97,3.04-1.71.65-.74.97-1.62.97-2.65,0-1.31-.62-2.35-1.86-3.11-1.24-.77-2.86-1.42-4.85-1.96-2-.54-4.16-1.05-6.5-1.54-2.33-.48-4.71-1.12-7.13-1.92-2.42-.8-4.61-1.85-6.58-3.16-1.97-1.31-3.56-3.01-4.77-5.12-1.21-2.1-1.81-4.75-1.81-7.94,0-3.53.96-6.74,2.87-9.64,1.91-2.9,4.81-5.23,8.69-7,3.88-1.76,8.72-2.65,14.51-2.65,3.88,0,7.69.44,11.43,1.32,3.74.88,7.04,2.2,9.91,3.97l-5.06,12.46c-2.81-1.59-5.6-2.76-8.35-3.5-2.76-.74-5.43-1.11-8.02-1.11-2.31,0-4.16.26-5.57.77-1.41.51-2.42,1.17-3.04,1.96-.62.8-.93,1.65-.93,2.56,0,1.37.62,2.43,1.86,3.2,1.24.77,2.84,1.4,4.81,1.88,1.97.48,4.15.98,6.54,1.49s4.77,1.15,7.13,1.92c2.36.77,4.54,1.79,6.54,3.07,2,1.28,3.61,2.96,4.85,5.03,1.24,2.08,1.86,4.68,1.86,7.81,0,3.47-.97,6.67-2.91,9.6-1.94,2.93-4.85,5.28-8.73,7.04-3.88,1.76-8.75,2.64-14.6,2.64Z"/>
      </g>
    </g>
  </g>
</svg>