<?xml version="1.0" encoding="UTF-8"?>
<svg id="Camada_2" data-name="Camada 2" xmlns="http://www.w3.org/2000/svg" viewBox="0 0 258.91 53.69">
  <defs>
    <style>
      .cls-1 {
        fill: #00ffc6;
      }

      .cls-2 {
        fill: #06f;
      }
    </style>
  </defs>
  <g id="Curso_Infos" data-name="Curso Infos">
    <g id="Page_Title" data-name="Page Title">
      <rect class="cls-2" width="258.91" height="53.69"/>
      <g>
        <path class="cls-1" d="m43.05,41.61l-5.67-2.26,12.36-30.54,5.54,2.63-12.22,30.17Z"/>
        <path class="cls-1" d="m66.99,39.95c-1.78,0-3.39-.42-4.82-1.24-1.43-.83-2.57-2.06-3.41-3.69s-1.27-3.62-1.27-5.96.42-4.2,1.27-5.84,1.98-2.92,3.41-3.82c1.43-.9,3.04-1.36,4.82-1.36s3.4.45,4.84,1.36c1.44.9,2.6,2.18,3.46,3.82s1.29,3.59,1.29,5.84-.43,4.28-1.29,5.91c-.86,1.63-2.01,2.87-3.46,3.71-1.45.84-3.06,1.27-4.84,1.27Zm0-4.94c.77,0,1.42-.24,1.96-.71s.97-1.16,1.29-2.05c.32-.89.48-1.96.48-3.19,0-1.32-.16-2.43-.48-3.32-.32-.89-.75-1.57-1.29-2.03-.54-.46-1.19-.69-1.96-.69-.68,0-1.29.23-1.84.69-.55.46-.98,1.14-1.29,2.03s-.46,2-.46,3.32c0,1.24.15,2.3.44,3.19.29.89.71,1.58,1.27,2.05s1.18.71,1.89.71Z"/>
        <path class="cls-1" d="m105.63,39.19c-1.25-.5-2.34-1.22-3.28-2.15-.94-.93-1.66-2.05-2.17-3.37s-.76-2.8-.76-4.46.25-3.17.76-4.55,1.23-2.55,2.17-3.53c.94-.98,2.03-1.74,3.28-2.28s2.59-.82,4.04-.82c1.91,0,3.54.35,4.91,1.06,1.37.71,2.45,1.68,3.25,2.91l-3,3.88-.23.42-.37-.32c-.06-.25-.11-.5-.14-.76-.03-.26-.18-.59-.46-.99-.46-.46-.98-.78-1.57-.95-.58-.17-1.25-.25-1.98-.25-.62,0-1.2.12-1.75.37-.55.24-1.05.62-1.5,1.12-.45.5-.78,1.15-1.01,1.94-.23.79-.35,1.73-.35,2.82,0,1,.13,1.87.39,2.6.26.73.6,1.33,1.01,1.81.42.47.89.83,1.43,1.05.54.23,1.08.34,1.64.34.58,0,1.13-.08,1.64-.23.51-.15,1.03-.41,1.57-.76s1.04-.85,1.5-1.5l3.04,4.01c-1.08,1.2-2.34,2.06-3.78,2.58s-2.84.78-4.2.78c-1.48,0-2.84-.25-4.08-.75Z"/>
        <path class="cls-1" d="m127.42,39.95c-.8,0-1.55-.1-2.24-.31-.69-.21-1.32-.53-1.89-.96-.57-.43-1.05-.98-1.45-1.67-.4-.68-.71-1.52-.92-2.51-.21-.99-.32-2.14-.32-3.44v-12.57h6v12.6c0,.7.05,1.3.14,1.78.09.48.23.89.42,1.21.18.32.41.55.67.68.26.13.53.2.81.2.52,0,.97-.09,1.34-.29s.68-.48.95-.86c.26-.38.45-.84.58-1.38.12-.54.18-1.18.18-1.91v-12.03h6v17.73c0,.69.02,1.29.07,1.81s.16,1.04.35,1.54h-5.35c-.15-.27-.26-.53-.32-.8-.06-.26-.1-.55-.12-.85-.02-.3-.02-.6-.02-.9-.25.46-.55.88-.92,1.25s-.76.68-1.18.92c-.42.25-.86.43-1.34.55-.48.12-.95.18-1.41.18Z"/>
        <path class="cls-1" d="m142.42,18.5h6.09v5.72l-.6-.32c.06-.86.28-1.65.65-2.35s.83-1.33,1.38-1.87,1.17-.95,1.85-1.22c.68-.28,1.37-.42,2.08-.42,1.2,0,2.25.21,3.14.65.89.43,1.71,1.09,2.44,1.98l-2.44,5.07-.14.37-.42-.14c-.12-.25-.22-.51-.28-.81-.06-.29-.28-.62-.65-.99-.34-.31-.73-.55-1.18-.74-.45-.18-.93-.28-1.45-.28-.65,0-1.23.1-1.75.29-.52.19-.98.49-1.38.91-.4.41-.71.97-.95,1.68-.23.71-.35,1.59-.35,2.66v10.89h-6.04v-21.08Z"/>
        <path class="cls-1" d="m167.69,39.62c-1.14-.21-2.18-.55-3.14-.99-.95-.45-1.8-1.04-2.54-1.78l2.26-4.71.18-.37.37.23c.12.22.24.44.35.67.11.23.36.52.76.85.74.52,1.53.92,2.38,1.2s1.82.42,2.93.42c.58,0,1.09-.07,1.52-.22.43-.15.76-.35.99-.6.23-.25.35-.53.35-.82s-.09-.55-.28-.78c-.18-.22-.44-.42-.76-.6-.32-.18-.75-.36-1.29-.55-.54-.19-1.18-.41-1.91-.64-1.32-.38-2.48-.86-3.48-1.42-1-.56-1.78-1.26-2.33-2.08-.55-.83-.83-1.83-.83-3.02s.34-2.22,1.02-3.19c.68-.98,1.61-1.75,2.81-2.33,1.2-.58,2.6-.86,4.2-.86.77,0,1.52.07,2.26.21.74.14,1.44.33,2.12.58.68.25,1.31.57,1.91.97s1.16.86,1.68,1.38l-2.72,4.06-.23.42-.42-.32c-.03-.25-.1-.47-.21-.67-.11-.2-.36-.47-.76-.81-.49-.34-1.04-.58-1.64-.72-.6-.14-1.21-.21-1.82-.21-.8,0-1.49.12-2.08.37-.58.25-.88.61-.88,1.08,0,.38.16.71.48.98.32.27.8.5,1.43.71.63.21,1.44.44,2.42.71,1.51.35,2.75.84,3.71,1.44.97.61,1.68,1.32,2.14,2.15.46.83.69,1.82.69,2.97,0,1.24-.32,2.37-.97,3.37-.65,1.01-1.58,1.8-2.79,2.37-1.22.58-2.65.87-4.31.87-1.26,0-2.46-.11-3.6-.32Z"/>
        <path class="cls-1" d="m191.54,39.95c-1.78,0-3.39-.42-4.82-1.24-1.43-.83-2.57-2.06-3.41-3.69s-1.27-3.62-1.27-5.96.42-4.2,1.27-5.84,1.98-2.92,3.41-3.82c1.43-.9,3.04-1.36,4.82-1.36s3.4.45,4.84,1.36c1.44.9,2.6,2.18,3.46,3.82s1.29,3.59,1.29,5.84-.43,4.28-1.29,5.91c-.86,1.63-2.01,2.87-3.46,3.71-1.45.84-3.06,1.27-4.84,1.27Zm0-4.94c.77,0,1.42-.24,1.96-.71s.97-1.16,1.29-2.05c.32-.89.48-1.96.48-3.19,0-1.32-.16-2.43-.48-3.32-.32-.89-.75-1.57-1.29-2.03-.54-.46-1.19-.69-1.96-.69-.68,0-1.29.23-1.84.69-.55.46-.98,1.14-1.29,2.03s-.46,2-.46,3.32c0,1.24.15,2.3.44,3.19.29.89.71,1.58,1.27,2.05s1.18.71,1.89.71Z"/>
        <path class="cls-1" d="m203.12,44.88v-4.94h18.41v4.94h-18.41Z"/>
      </g>
    </g>
  </g>
</svg>