<?xml version="1.0" encoding="UTF-8"?>
<svg id="Camada_2" data-name="Camada 2" xmlns="http://www.w3.org/2000/svg" viewBox="0 0 23.13 22.66">
  <defs>
    <style>
      .cls-1 {
        fill: #06f;
      }
    </style>
  </defs>
  <g id="Newsletter_CTA_2" data-name="Newsletter CTA 2">
    <path class="cls-1" d="m23.13,12.59c-.1.56-.15,1.13-.29,1.69-.39,1.62-1.07,3.09-2.09,4.41-1.39,1.8-3.15,3.1-5.29,3.87-.11.04-.21.08-.32.09-.37.05-.63-.13-.7-.5-.02-.11-.03-.22-.03-.34,0-1.05,0-2.11,0-3.16,0-.67-.19-1.29-.65-1.81-.11-.12-.06-.15.07-.17.47-.07.94-.14,1.39-.26,1.98-.53,3.19-1.79,3.55-3.82.16-.91.23-1.82,0-2.73-.15-.62-.42-1.19-.83-1.68-.16-.19-.21-.35-.13-.6.26-.87.14-1.74-.15-2.59-.05-.14-.15-.15-.26-.15-.57,0-1.09.2-1.6.43-.4.19-.78.42-1.15.66-.13.09-.25.1-.4.06-1.78-.45-3.57-.45-5.35,0-.17.04-.3,0-.44-.09-.64-.42-1.31-.79-2.07-.99-.23-.06-.46-.09-.69-.08-.12,0-.19.05-.23.17-.3.89-.4,1.79-.11,2.7.05.15.02.25-.08.37-.86,1.03-1.14,2.22-1.03,3.54.06.77.18,1.52.49,2.23.56,1.29,1.56,2.06,2.87,2.49.53.17,1.08.26,1.63.35.24.04.25.05.1.23-.3.35-.46.76-.54,1.2-.02.1-.04.19-.14.24-.93.39-2.06.44-2.88-.43-.2-.21-.35-.45-.5-.69-.3-.45-.7-.78-1.21-.97-.24-.09-.48-.12-.73-.07-.23.05-.27.17-.12.35.08.09.18.18.29.25.62.39,1,.97,1.27,1.62.16.38.36.74.67,1.03.66.62,1.46.79,2.34.74.25-.01.51-.03.76-.09.12-.03.19.02.19.14,0,.62.03,1.23,0,1.85-.03.5-.42.7-.92.52-1.28-.45-2.46-1.09-3.51-1.96-2.26-1.86-3.67-4.23-4.13-7.11-.56-3.45.26-6.58,2.47-9.29C4.6,1.84,7.15.42,10.24.08c3.92-.43,7.24.86,9.92,3.74,1.64,1.78,2.59,3.91,2.9,6.31.02.19.05.37.07.56v1.89Z"/>
  </g>
</svg>