<?xml version="1.0" encoding="UTF-8"?>
<svg id="Camada_2" data-name="Camada 2" xmlns="http://www.w3.org/2000/svg" viewBox="0 0 24 24">
  <defs>
    <style>
      .cls-1 {
        fill: #06f;
      }
    </style>
  </defs>
  <g id="Newsletter_CTA_2" data-name="Newsletter CTA 2">
    <g id="Footer">
      <g>
        <path d="m12,0C5.37,0,0,5.37,0,12s5.37,12,12,12,12-5.37,12-12S18.63,0,12,0Zm7,15.11c0,2.14-1.74,3.89-3.89,3.89h-6.22c-2.14,0-3.89-1.74-3.89-3.89v-6.22c0-2.14,1.74-3.89,3.89-3.89h6.22c2.14,0,3.89,1.74,3.89,3.89v6.22Z"/>
        <path d="m15.11,6.56h-6.22c-1.29,0-2.33,1.05-2.33,2.33v6.22c0,1.29,1.05,2.33,2.33,2.33h6.22c1.29,0,2.33-1.05,2.33-2.33v-6.22c0-1.29-1.05-2.33-2.33-2.33Zm-3.11,9.33c-2.14,0-3.89-1.74-3.89-3.89s1.74-3.89,3.89-3.89,3.89,1.74,3.89,3.89-1.74,3.89-3.89,3.89Zm3.89-7c-.43,0-.78-.35-.78-.78s.35-.78.78-.78.78.35.78.78-.35.78-.78.78Z"/>
        <circle cx="12" cy="12" r="2.33"/>
      </g>
      <g>
        <path class="cls-1" d="m12,0C5.37,0,0,5.37,0,12s5.37,12,12,12,12-5.37,12-12S18.63,0,12,0Zm7,15.11c0,2.14-1.74,3.89-3.89,3.89h-6.22c-2.14,0-3.89-1.74-3.89-3.89v-6.22c0-2.14,1.74-3.89,3.89-3.89h6.22c2.14,0,3.89,1.74,3.89,3.89v6.22Z"/>
        <path class="cls-1" d="m15.11,6.56h-6.22c-1.29,0-2.33,1.05-2.33,2.33v6.22c0,1.29,1.05,2.33,2.33,2.33h6.22c1.29,0,2.33-1.05,2.33-2.33v-6.22c0-1.29-1.05-2.33-2.33-2.33Zm-3.11,9.33c-2.14,0-3.89-1.74-3.89-3.89s1.74-3.89,3.89-3.89,3.89,1.74,3.89,3.89-1.74,3.89-3.89,3.89Zm3.89-7c-.43,0-.78-.35-.78-.78s.35-.78.78-.78.78.35.78.78-.35.78-.78.78Z"/>
        <circle class="cls-1" cx="12" cy="12" r="2.33"/>
      </g>
    </g>
  </g>
</svg>