<?xml version="1.0" encoding="UTF-8"?>
<svg id="Camada_2" data-name="Camada 2" xmlns="http://www.w3.org/2000/svg" viewBox="0 0 23.75 23.75">
  <defs>
    <style>
      .cls-1 {
        fill: #06f;
      }
    </style>
  </defs>
  <g id="Newsletter_CTA_2" data-name="Newsletter CTA 2">
    <path class="cls-1" d="m11.87,0C5.32,0,0,5.32,0,11.87s5.32,11.87,11.87,11.87,11.87-5.32,11.87-11.87S18.43,0,11.87,0h0Zm-3.07,17.29h-2.6v-7.81h2.6v7.81Zm-1.3-8.87h-.02c-.87,0-1.43-.6-1.43-1.35s.58-1.35,1.47-1.35,1.43.58,1.45,1.35c0,.75-.56,1.35-1.47,1.35h0Zm10.66,8.87h-2.6v-4.18c0-1.05-.38-1.77-1.31-1.77-.72,0-1.14.48-1.33.95-.07.17-.09.4-.09.63v4.36h-2.6s.03-7.08,0-7.81h2.6v1.11c.34-.53.96-1.29,2.34-1.29,1.71,0,2.99,1.12,2.99,3.51v4.48Z"/>
  </g>
</svg>