<?xml version="1.0" encoding="UTF-8"?>
<svg id="Camada_2" data-name="Camada 2" xmlns="http://www.w3.org/2000/svg" viewBox="0 0 23.76 23.76">
  <defs>
    <style>
      .cls-1 {
        fill: #06f;
      }
    </style>
  </defs>
  <g id="Newsletter_CTA_2" data-name="Newsletter CTA 2">
    <path class="cls-1" d="m11.88,0C5.33,0,0,5.33,0,11.88s5.33,11.88,11.88,11.88,11.88-5.33,11.88-11.88S18.43,0,11.88,0h0Zm5.3,9.16c0,.12,0,.23,0,.35,0,3.61-2.75,7.78-7.78,7.78-1.55,0-2.98-.45-4.19-1.23.21.02.43.04.65.04,1.28,0,2.46-.44,3.4-1.17-1.2-.02-2.21-.81-2.55-1.9.17.03.34.05.51.05.25,0,.49-.03.72-.1-1.25-.25-2.19-1.36-2.19-2.68v-.03c.37.2.79.33,1.24.34-.73-.49-1.22-1.33-1.22-2.28,0-.5.13-.97.37-1.37,1.35,1.65,3.36,2.74,5.63,2.86-.05-.2-.07-.41-.07-.62,0-1.51,1.22-2.73,2.73-2.73.79,0,1.49.33,2,.86.62-.12,1.21-.35,1.74-.66-.21.64-.64,1.17-1.2,1.51.55-.06,1.08-.21,1.57-.43-.36.55-.83,1.03-1.36,1.42h0Z"/>
  </g>
</svg>